HIERARCHY
ROOT Model
{
	OFFSET 0 0 0
	CHANNELS 6 Xposition Yposition Zposition Zrotation Xrotation Yrotation
	JOINT Model1
	{
		OFFSET 0 -2.25479 2.99383
		CHANNELS 3 Zrotation Xrotation Yrotation
		JOINT Model2
		{
			OFFSET 12.111 0 0
			CHANNELS 3 Zrotation Xrotation Yrotation
			JOINT Model3
			{
				OFFSET 11.5502 0 0
				CHANNELS 3 Zrotation Xrotation Yrotation
				JOINT Model4
				{
					OFFSET 11.781 0 0
					CHANNELS 3 Zrotation Xrotation Yrotation
					JOINT Model5
					{
						OFFSET 20.0601 0 0
						CHANNELS 3 Zrotation Xrotation Yrotation
						JOINT Model6
						{
							OFFSET 11.1962 0 0
							CHANNELS 3 Zrotation Xrotation Yrotation
							End Site
							{
								OFFSET 0 0 0
							}
						}
					}
					JOINT Model7
					{
						OFFSET 10.8223 0.417534 3.51114
						CHANNELS 3 Zrotation Xrotation Yrotation
						JOINT Model8
						{
							OFFSET -6.07943 0 0
							CHANNELS 3 Zrotation Xrotation Yrotation
							JOINT Model9
							{
								OFFSET -0.277412 10.39 -0.0512447
								CHANNELS 3 Zrotation Xrotation Yrotation
								JOINT Model10
								{
									OFFSET -3.4391 -0.282043 1.86678
									CHANNELS 3 Zrotation Xrotation Yrotation
									JOINT Model11
									{
										OFFSET 13.0269 0 0
										CHANNELS 3 Zrotation Xrotation Yrotation
										JOINT Model12
										{
											OFFSET 10.8866 0 0
											CHANNELS 3 Zrotation Xrotation Yrotation
											JOINT Model13
											{
												OFFSET 16.7317 0 0
												CHANNELS 3 Zrotation Xrotation Yrotation
												JOINT Model14
												{
													OFFSET 11.8292 0 0
													CHANNELS 3 Zrotation Xrotation Yrotation
													JOINT Model15
													{
														OFFSET 4.82751 -3.73566 -0.836517
														CHANNELS 3 Zrotation Xrotation Yrotation
														JOINT Model16
														{
															OFFSET 3.75311 -0.0582886 -0.0186462
															CHANNELS 3 Zrotation Xrotation Yrotation
															JOINT Model17
															{
																OFFSET 2.88689 0.0192337 0.0148029
																CHANNELS 3 Zrotation Xrotation Yrotation
																End Site
																{
																	OFFSET 0 0 0
																}
															}
														}
													}
													JOINT Model18
													{
														OFFSET 9.72197 -3.06458 0.238768
														CHANNELS 3 Zrotation Xrotation Yrotation
														JOINT Model19
														{
															OFFSET 4.61131 0 0
															CHANNELS 3 Zrotation Xrotation Yrotation
															JOINT Model20
															{
																OFFSET 2.8969 -7.62939e-006 0
																CHANNELS 3 Zrotation Xrotation Yrotation
																End Site
																{
																	OFFSET 0 0 0
																}
															}
														}
													}
													JOINT Model21
													{
														OFFSET 9.54431 -0.745064 0.588938
														CHANNELS 3 Zrotation Xrotation Yrotation
														JOINT Model22
														{
															OFFSET 5.33978 0 0
															CHANNELS 3 Zrotation Xrotation Yrotation
															JOINT Model23
															{
																OFFSET 3.03619 7.62939e-006 0
																CHANNELS 3 Zrotation Xrotation Yrotation
																End Site
																{
																	OFFSET 0 0 0
																}
															}
														}
													}
													JOINT Model24
													{
														OFFSET 9.47758 1.51286 0.485121
														CHANNELS 3 Zrotation Xrotation Yrotation
														JOINT Model25
														{
															OFFSET 4.96136 7.62939e-006 0
															CHANNELS 3 Zrotation Xrotation Yrotation
															JOINT Model26
															{
																OFFSET 2.51965 0 0
																CHANNELS 3 Zrotation Xrotation Yrotation
																End Site
																{
																	OFFSET 0 0 0
																}
															}
														}
													}
													JOINT Model27
													{
														OFFSET 9.34247 3.34117 -0.239281
														CHANNELS 3 Zrotation Xrotation Yrotation
														JOINT Model28
														{
															OFFSET 3.28259 2.28882e-005 0
															CHANNELS 3 Zrotation Xrotation Yrotation
															JOINT Model29
															{
																OFFSET 2.1292 0 0
																CHANNELS 3 Zrotation Xrotation Yrotation
																End Site
																{
																	OFFSET 0 0 0
																}
															}
														}
													}
												}
											}
										}
									}
								}
							}
						}
					}
					JOINT Model30
					{
						OFFSET 10.8223 0.4179 -3.51107
						CHANNELS 3 Zrotation Xrotation Yrotation
						JOINT Model31
						{
							OFFSET 6.07943 0 0
							CHANNELS 3 Zrotation Xrotation Yrotation
							JOINT Model32
							{
								OFFSET 0.277412 -10.39 0.0512428
								CHANNELS 3 Zrotation Xrotation Yrotation
								JOINT Model33
								{
									OFFSET 3.4391 0.282043 -1.86678
									CHANNELS 3 Zrotation Xrotation Yrotation
									JOINT Model34
									{
										OFFSET -13.0269 0 0
										CHANNELS 3 Zrotation Xrotation Yrotation
										JOINT Model35
										{
											OFFSET -10.8866 0 0
											CHANNELS 3 Zrotation Xrotation Yrotation
											JOINT Model36
											{
												OFFSET -16.7317 0 0
												CHANNELS 3 Zrotation Xrotation Yrotation
												JOINT Model37
												{
													OFFSET -11.8292 0 0
													CHANNELS 3 Zrotation Xrotation Yrotation
													JOINT Model38
													{
														OFFSET -4.82751 3.73566 0.836517
														CHANNELS 3 Zrotation Xrotation Yrotation
														JOINT Model39
														{
															OFFSET -3.75311 0.0582886 0.0186424
															CHANNELS 3 Zrotation Xrotation Yrotation
															JOINT Model40
															{
																OFFSET -2.88688 -0.0192337 -0.014801
																CHANNELS 3 Zrotation Xrotation Yrotation
																End Site
																{
																	OFFSET 0 0 0
																}
															}
														}
													}
													JOINT Model41
													{
														OFFSET -9.72197 3.06459 -0.23877
														CHANNELS 3 Zrotation Xrotation Yrotation
														JOINT Model42
														{
															OFFSET -4.6113 0 0
															CHANNELS 3 Zrotation Xrotation Yrotation
															JOINT Model43
															{
																OFFSET -2.8969 0 0
																CHANNELS 3 Zrotation Xrotation Yrotation
																End Site
																{
																	OFFSET 0 0 0
																}
															}
														}
													}
													JOINT Model44
													{
														OFFSET -9.5443 0.745064 -0.58894
														CHANNELS 3 Zrotation Xrotation Yrotation
														JOINT Model45
														{
															OFFSET -5.33978 0 0
															CHANNELS 3 Zrotation Xrotation Yrotation
															JOINT Model46
															{
																OFFSET -3.03619 -1.52588e-005 0
																CHANNELS 3 Zrotation Xrotation Yrotation
																End Site
																{
																	OFFSET 0 0 0
																}
															}
														}
													}
													JOINT Model47
													{
														OFFSET -9.47759 -1.51286 -0.485123
														CHANNELS 3 Zrotation Xrotation Yrotation
														JOINT Model48
														{
															OFFSET -4.96136 -1.52588e-005 0
															CHANNELS 3 Zrotation Xrotation Yrotation
															JOINT Model49
															{
																OFFSET -2.51966 0 0
																CHANNELS 3 Zrotation Xrotation Yrotation
																End Site
																{
																	OFFSET 0 0 0
																}
															}
														}
													}
													JOINT Model50
													{
														OFFSET -9.34246 -3.34118 0.239277
														CHANNELS 3 Zrotation Xrotation Yrotation
														JOINT Model51
														{
															OFFSET -3.2826 -1.90735e-005 0
															CHANNELS 3 Zrotation Xrotation Yrotation
															JOINT Model52
															{
																OFFSET -2.1292 0 0
																CHANNELS 3 Zrotation Xrotation Yrotation
																End Site
																{
																	OFFSET 0 0 0
																}
															}
														}
													}
												}
											}
										}
									}
								}
							}
						}
					}
				}
			}
		}
	}
	JOINT Model53
	{
		OFFSET 4.38026 -2.14632 -1.11516
		CHANNELS 3 Zrotation Xrotation Yrotation
		JOINT Model54
		{
			OFFSET 0 0 4.94999
			CHANNELS 3 Zrotation Xrotation Yrotation
			JOINT Model55
			{
				OFFSET 18.5642 0 0
				CHANNELS 3 Zrotation Xrotation Yrotation
				JOINT Model56
				{
					OFFSET 21.2884 0 1.14441e-005
					CHANNELS 3 Zrotation Xrotation Yrotation
					JOINT Model57
					{
						OFFSET 30.261 0 0
						CHANNELS 3 Zrotation Xrotation Yrotation
						JOINT Model58
						{
							OFFSET 11.7259 0 0
							CHANNELS 3 Zrotation Xrotation Yrotation
							JOINT Model59
							{
								OFFSET 10.682 0 0
								CHANNELS 3 Zrotation Xrotation Yrotation
								End Site
								{
									OFFSET 0 0 0
								}
							}
						}
					}
				}
			}
		}
	}
	JOINT Model60
	{
		OFFSET -4.38026 -2.14632 -1.11516
		CHANNELS 3 Zrotation Xrotation Yrotation
		JOINT Model61
		{
			OFFSET 0 0 -4.94999
			CHANNELS 3 Zrotation Xrotation Yrotation
			JOINT Model62
			{
				OFFSET -18.5642 0 0
				CHANNELS 3 Zrotation Xrotation Yrotation
				JOINT Model63
				{
					OFFSET -21.2884 0 -1.14441e-005
					CHANNELS 3 Zrotation Xrotation Yrotation
					JOINT Model64
					{
						OFFSET -30.261 0 0
						CHANNELS 3 Zrotation Xrotation Yrotation
						JOINT Model65
						{
							OFFSET -11.7259 0 0
							CHANNELS 3 Zrotation Xrotation Yrotation
							JOINT Model66
							{
								OFFSET -10.682 0 0
								CHANNELS 3 Zrotation Xrotation Yrotation
								End Site
								{
									OFFSET 0 0 0
								}
							}
						}
					}
				}
			}
		}
	}
}
MOTION
Frames: 4
Frame Time: 0.033333
14.6164 161.746 -14.732 113.123 -4.95634 96.0278 -180 4.29621e-031 -90 5.6334 0.746101 1.39051 11.2487 1.62442 2.70139 11.2487 1.62485 2.70131 4.76414 5.82086 -6.67441 -4.31575 4.02589 5.00852 120.092 75.5343 58.4939 13.7826 10.2868 -0.0928728 -167.277 84.4999 48.8109 172.72 -29.6055 -50.1266 8.85819e-006 -2.74882 2.75175e-005 -1.38839 5.15146 14.0867 1.4924e-006 7.99758 1.58462e-006 -9.8555 1.2456 -14.3634 -72.0648 39.0385 39.3397 33.3638 2.10362 14.835 0.588947 0.308273 6.35287 -99.6409 81.413 100.35 -0.0181409 2.75815e-005 -0.117315 -0.124139 0.00241088 -0.799296 -79.8382 79.5773 80.5374 -0.000225756 -0.000221115 2.21444e-005 -0.000956199 0.000122634 -2.73887e-005 -66.7416 80.4058 67.2171 -0.000437111 1.57528e-005 -2.73672e-005 -0.000136575 -0.000109552 -5.47046e-005 -6.42159 81.2158 8.01779 -0.000218537 1.66919e-005 0.000212112 0.000901624 -0.000185095 -0.000218604 -59.9282 75.5373 58.5147 15.3561 14.3745 0.207157 -167.277 84.4999 48.8109 -179.583 -24.1151 -25.7085 7.21033e-006 -0.497028 2.91047e-005 -1.90022 0.668006 -0.0115253 -4.93073e-006 1.0222 2.26496e-006 -13.1609 1.18866 -10.2815 -72.0648 39.0385 39.3397 33.3638 2.10361 14.835 0.588946 0.308273 6.35287 -99.6409 81.413 100.35 -0.018141 3.0396e-005 -0.117315 -0.124139 0.00241155 -0.799296 -79.8382 79.5773 80.5374 -0.00026068 -0.000218277 2.36322e-005 -0.000956272 0.000123387 -2.72372e-005 -66.7416 80.4058 67.2171 -0.000437173 1.5192e-005 -2.7259e-005 -0.000136659 -0.000108863 -5.45581e-005 -6.42159 81.2158 8.01779 -0.00021864 2.00317e-005 0.000212343 0.000901483 -0.000190633 -0.000218504 0.000811311 0.56661 89.91 -5.77542 34.9494 12.8351 4.28534e-006 42.2954 -3.66444e-005 66.375 -17.8489 11.3372 3.58826e-006 -27.3819 5.32713e-008 -45.7315 -26.1526 22.1089 -35.492 0.00770391 -0.000410498 -180 -0.566579 -90.09 13.0345 -34.9242 -25.5111 -1.55958e-005 -26.0925 -5.49958e-006 39.8028 27.3882 -0.00561691 1.57434e-007 41.0073 2.52189e-006 -66.104 11.395 -7.28989 -38.696 2.94813 -0.296751 
17.1431 160.163 -15.237 115.971 -4.32257 96.4848 -180 4.29621e-031 -90 5.40357 0.532982 1.39584 10.7934 1.19444 2.73542 10.7934 1.19487 2.73534 11.1176 5.21915 -4.65717 -4.72781 4.2694 3.2473 120.092 75.5343 58.4939 19.1047 12.0636 -1.16608 -167.277 84.4999 48.8109 171.629 -30.2255 -51.2198 9.51958e-006 -4.1225 2.75571e-005 -2.83137 5.5204 15.0094 1.47641e-006 8.56925 1.58692e-006 -9.34108 1.18937 -14.4881 -72.0648 39.0385 39.3397 33.3638 2.10362 14.835 0.588947 0.308273 6.35287 -99.6409 81.413 100.35 -0.0181409 2.75815e-005 -0.117315 -0.124139 0.00241088 -0.799296 -79.8382 79.5773 80.5374 -0.000225756 -0.000221115 2.21444e-005 -0.000956199 0.000122634 -2.73887e-005 -66.7416 80.4058 67.2171 -0.000437111 1.57528e-005 -2.73672e-005 -0.000136575 -0.000109552 -5.47046e-005 -6.42159 81.2158 8.01779 -0.000218537 1.66919e-005 0.000212112 0.000901624 -0.000185095 -0.000218604 -59.9282 75.5373 58.5147 17.8283 16.2039 -0.226289 -167.277 84.4999 48.8109 175.127 -23.5362 -29.6832 7.20944e-006 -0.49529 2.91047e-005 -1.80836 3.10141 -0.0265626 -5.07549e-006 4.67439 2.27216e-006 -13.9445 1.40199 -11.4297 -72.0648 39.0385 39.3397 33.3638 2.10361 14.835 0.588946 0.308273 6.35287 -99.6409 81.413 100.35 -0.018141 3.0396e-005 -0.117315 -0.124139 0.00241155 -0.799296 -79.8382 79.5773 80.5374 -0.00026068 -0.000218277 2.36322e-005 -0.000956272 0.000123387 -2.72372e-005 -66.7416 80.4058 67.2171 -0.000437173 1.5192e-005 -2.7259e-005 -0.000136659 -0.000108863 -5.45581e-005 -6.42159 81.2158 8.01779 -0.00021864 2.00317e-005 0.000212343 0.000901483 -0.000190633 -0.000218504 0.000811311 0.56661 89.91 5.34487 46.6733 25.7355 1.35345e-005 51.3629 -4.34111e-005 58.3571 -33.3763 -1.03867 3.62048e-006 -50.1749 7.38593e-008 -32.4318 -27.3393 28.4129 -35.5191 -0.0693297 0.00369578 -180 -0.566579 -90.09 13.3827 -34.9339 -28.6138 -1.51973e-005 -22.2475 -5.33635e-006 44.6143 26.5038 -0.00613892 2.33765e-007 39.6724 2.47248e-006 -65.6088 8.79448 -5.86966 -42.9488 6.57116 -0.236964 
19.4444 158.982 -15.7622 118.252 -3.27463 95.7534 -180 4.29621e-031 -90 5.26031 0.343034 1.2374 10.5125 0.797626 2.43825 10.5125 0.798056 2.43817 15.2708 4.55233 -3.15725 -4.69108 4.01799 2.43703 120.092 75.5343 58.4939 22.2305 12.4483 -1.94455 -167.277 84.4999 48.8109 167.474 -29.1262 -51.6209 1.02608e-005 -5.6564 2.76203e-005 -5.45812 5.5003 15.1189 1.4789e-006 8.48021 1.58655e-006 -9.41897 1.26123 -15.219 -72.0648 39.0385 39.3397 33.3638 2.10362 14.835 0.588947 0.308273 6.35287 -99.6409 81.413 100.35 -0.0181409 2.75815e-005 -0.117315 -0.124139 0.00241088 -0.799296 -79.8382 79.5773 80.5374 -0.000225756 -0.000221115 2.21444e-005 -0.000956199 0.000122634 -2.73887e-005 -66.7416 80.4058 67.2171 -0.000437111 1.57528e-005 -2.73672e-005 -0.000136575 -0.000109552 -5.47046e-005 -6.42159 81.2158 8.01779 -0.000218537 1.66919e-005 0.000212112 0.000901624 -0.000185095 -0.000218604 -59.9282 75.5373 58.5147 19.7236 16.5708 -0.73969 -167.277 84.4999 48.8109 169.329 -22.1034 -32.2657 7.1974e-006 -0.471588 2.91045e-005 -1.74269 4.84012 -0.0426417 -5.17978e-006 7.2839 2.28302e-006 -15.2236 1.76723 -13.1535 -72.0648 39.0385 39.3397 33.3638 2.10361 14.835 0.588946 0.308273 6.35287 -99.6409 81.413 100.35 -0.018141 3.0396e-005 -0.117315 -0.124139 0.00241155 -0.799296 -79.8382 79.5773 80.5374 -0.00026068 -0.000218277 2.36322e-005 -0.000956272 0.000123387 -2.72372e-005 -66.7416 80.4058 67.2171 -0.000437173 1.5192e-005 -2.7259e-005 -0.000136659 -0.000108863 -5.45581e-005 -6.42159 81.2158 8.01779 -0.00021864 2.00317e-005 0.000212343 0.000901483 -0.000190633 -0.000218504 0.000811311 0.56661 89.91 11.9168 46.3127 25.8865 8.54099e-006 46.8509 -3.96334e-005 53.4033 -34.1435 -9.90428 3.62413e-006 -51.9213 7.66979e-008 -37.4301 -23.7177 22.7588 -35.5191 -0.0693297 0.00369585 -180 -0.566579 -90.09 11.3704 -34.0236 -32.3978 -1.47216e-005 -17.3672 -5.17502e-006 50.4527 24.5925 -0.00666644 3.88699e-007 36.7961 2.37656e-006 -60.9046 4.5872 -3.45146 -51.6117 11.4044 1.33954 
21.4947 158.472 -16.3122 119.854 -2.54153 94.3558 -180 4.29621e-031 -90 5.24281 0.379438 0.932023 10.4791 0.841921 1.82559 10.4791 0.842351 1.82551 16.6008 3.78069 -2.64722 -3.99432 3.24181 3.38025 120.092 75.5343 58.4939 24.0969 12.8995 -2.39884 -167.277 84.4999 48.8109 163.374 -27.4469 -50.7863 1.07439e-005 -6.65173 2.76721e-005 -9.8426 4.67806 14.7977 1.51767e-006 7.09064 1.5813e-006 -10.3638 1.48596 -16.2684 -72.0648 39.0385 39.3397 33.3638 2.10362 14.835 0.588947 0.308273 6.35287 -99.6409 81.413 100.35 -0.0181409 2.75815e-005 -0.117315 -0.124139 0.00241088 -0.799296 -79.8382 79.5773 80.5374 -0.000225756 -0.000221115 2.21444e-005 -0.000956199 0.000122634 -2.73887e-005 -66.7416 80.4058 67.2171 -0.000437111 1.57528e-005 -2.73672e-005 -0.000136575 -0.000109552 -5.47046e-005 -6.42159 81.2158 8.01779 -0.000218537 1.66919e-005 0.000212112 0.000901624 -0.000185095 -0.000218604 -59.9282 75.5373 58.5147 20.6722 15.9152 -1.10713 -167.277 84.4999 48.8109 164.235 -20.5056 -33.8057 7.1829e-006 -0.443045 2.91044e-005 -1.71259 5.64217 -0.0520182 -5.22828e-006 8.48764 2.28968e-006 -16.616 2.23045 -15.1764 -72.0648 39.0385 39.3397 33.3638 2.10361 14.835 0.588946 0.308273 6.35287 -99.6409 81.413 100.35 -0.018141 3.0396e-005 -0.117315 -0.124139 0.00241155 -0.799296 -79.8382 79.5773 80.5374 -0.00026068 -0.000218277 2.36322e-005 -0.000956272 0.000123387 -2.72372e-005 -66.7416 80.4058 67.2171 -0.000437173 1.5192e-005 -2.7259e-005 -0.000136659 -0.000108863 -5.45581e-005 -6.42159 81.2158 8.01779 -0.00021864 2.00317e-005 0.000212343 0.000901483 -0.000190633 -0.000218504 0.000811311 0.56661 89.91 14.9586 48.2871 28.8812 7.5788e-006 45.8825 -3.8937e-005 51.9966 -35.1847 -13.3337 3.62885e-006 -53.995 8.04667e-008 -38.6763 -23.3743 21.8969 -35.492 0.0077038 -0.000410452 -180 -0.566579 -90.09 6.81485 -31.591 -36.0615 -1.42268e-005 -11.9998 -5.04943e-006 57.5962 21.8451 -0.00714642 5.92055e-007 32.6653 2.26063e-006 -51.4793 1.58252 -1.48366 -61.9231 14.6819 3.84169 
